<?xml version="1.0" encoding="UTF-8" standalone="no"?>
<svg width="52px" height="52px" viewBox="0 0 52 52" version="1.1" xmlns="http://www.w3.org/2000/svg" xmlns:xlink="http://www.w3.org/1999/xlink">
    <!-- Generator: Sketch 41.2 (35397) - http://www.bohemiancoding.com/sketch -->
    <title>Group</title>
    <desc>Created with Sketch.</desc>
    <defs></defs>
    <g id="Page-1" stroke="none" stroke-width="1" fill="none" fill-rule="evenodd">
        <g id="iPhone-7" transform="translate(-658.000000, -5164.000000)">
            <g id="商品10" transform="translate(20.000000, 4656.000000)">
                <g id="组-51" transform="translate(638.000000, 508.000000)">
                    <g id="Group">
                        <path d="M26.0921284,52 L25.909002,52 C7.18262646,52 0,44.8185039 0,26.0921284 L0,25.909002 C0,7.14080129 7.09106324,0 25.909002,0 L26.0921284,0 C44.8185039,0 52,7.28097215 52,25.909002 L52,26.0921284 C52,44.91798 44.7212887,52 26.0921284,52 Z" id="Shape" fill="#3A3635"></path>
                        <path d="M35.818281,28.1800827 L28.1811736,28.1800827 L28.1811736,35.8171901 C28.1811736,37.0204082 27.2048543,37.9989091 26.0005454,37.9989091 C24.7951457,37.9989091 23.8177356,37.0204082 23.8177356,35.8171901 L23.8177356,28.1800827 L16.181719,28.1800827 C14.9774101,28.1800827 14,27.2037635 14,25.9983637 C14,24.7940548 14.9774101,23.8177356 16.181719,23.8177356 L23.8177356,23.8177356 L23.8177356,16.1806282 C23.8177356,14.9763193 24.7951457,14 26.0005454,14 C27.2048543,14 28.1811736,14.9763193 28.1811736,16.1806282 L28.1811736,23.8177356 L35.818281,23.8177356 C37.0225899,23.8177356 38,24.7940548 38,25.9983637 C38,27.2037635 37.0225899,28.1800827 35.818281,28.1800827 Z" id="Shape" fill="#FFFFFF"></path>
                    </g>
                </g>
            </g>
        </g>
    </g>
</svg>